<svg width="36" height="36" viewBox="0 0 36 36" fill="none" xmlns="http://www.w3.org/2000/svg">
<ellipse cx="17.8049" cy="17.967" rx="17.8049" ry="17.967" fill="#3197F4"/>
<g clip-path="url(#clip0_1_2353)">
<path fill-rule="evenodd" clip-rule="evenodd" d="M23.8476 19.9475C24.4436 20.5294 25.0727 21.0768 25.6072 21.7174C25.8433 22.002 26.0669 22.2958 26.2379 22.6261C26.4802 23.0957 26.2607 23.6125 25.8397 23.6405L23.2222 23.6394C22.5471 23.6954 22.0085 23.4236 21.5557 22.962C21.1933 22.5929 20.8577 22.2 20.5092 21.8185C20.3664 21.6625 20.2169 21.5157 20.0382 21.3997C19.6809 21.1678 19.3707 21.2388 19.1666 21.6115C18.9586 21.9905 18.9114 22.4103 18.891 22.8327C18.863 23.449 18.6766 23.6111 18.0575 23.6393C16.7344 23.7017 15.4786 23.5015 14.3121 22.834C13.2837 22.2456 12.4861 21.4149 11.792 20.4745C10.4404 18.6432 9.40543 16.631 8.4752 14.5624C8.26581 14.0964 8.41894 13.8462 8.93317 13.8373C9.78707 13.8207 10.6409 13.8219 11.4958 13.8361C11.8428 13.8412 12.0726 14.0403 12.2066 14.3681C12.6685 15.5041 13.2338 16.5849 13.9434 17.5866C14.1324 17.8533 14.325 18.12 14.5994 18.3078C14.903 18.5156 15.1341 18.4467 15.2769 18.1086C15.3675 17.8942 15.4072 17.6632 15.4276 17.4336C15.4952 16.6436 15.5041 15.8549 15.3855 15.0677C15.3126 14.5763 15.0359 14.2583 14.5456 14.1653C14.2955 14.1179 14.3327 14.0248 14.4538 13.882C14.6642 13.6357 14.8621 13.4824 15.2566 13.4824H18.2147C18.6804 13.5743 18.7839 13.7835 18.8476 14.2521L18.8501 17.538C18.8451 17.7194 18.9408 18.2578 19.2675 18.3778C19.529 18.4633 19.7014 18.2541 19.8583 18.0883C20.5666 17.3366 21.0721 16.4482 21.5236 15.5283C21.7241 15.1238 21.8964 14.7037 22.0634 14.284C22.1871 13.9726 22.3813 13.8193 22.7321 13.8261L25.5791 13.8286C25.6636 13.8286 25.749 13.8299 25.8307 13.8439C26.3105 13.9256 26.442 14.132 26.2938 14.6005C26.0603 15.3355 25.6061 15.948 25.1619 16.5634C24.6871 17.2203 24.1793 17.8548 23.7085 18.5157C23.2759 19.1192 23.3103 19.4233 23.8476 19.9475Z" fill="white"/>
</g>
<defs>
<clipPath id="clip0_1_2353">
<rect width="17.967" height="17.967" fill="white" transform="translate(8.38458 9.58203)"/>
</clipPath>
</defs>
</svg>
